<svg width="19" height="19" viewBox="0 0 19 19" fill="none" xmlns="http://www.w3.org/2000/svg">
<path fill-rule="evenodd" clip-rule="evenodd" d="M9.1247 18.875V9.8753H6.11479C6.01839 12.3546 4.9411 14.6941 3.1199 16.3793C4.75828 17.903 6.88891 18.7886 9.1247 18.875ZM2.07656 15.2391C0.882131 13.6987 0.199718 11.8231 0.125 9.8753H5.36419C5.26737 12.1549 4.26955 14.3028 2.58997 15.8471C2.60048 15.8583 2.24845 15.4613 2.07731 15.2391H2.07656ZM16.41 15.8471C17.9154 14.2128 18.7893 12.0956 18.875 9.8753H13.6358C13.7326 12.1549 14.7304 14.3028 16.41 15.8471ZM15.8801 16.38C14.2416 17.9035 12.111 18.7888 9.8753 18.875V9.8753H12.8852C12.9816 12.3546 14.0589 14.6941 15.8801 16.3793V16.38ZM16.41 3.15292C17.9154 4.78723 18.7893 6.90439 18.875 9.1247H13.6358C13.7326 6.84512 14.7304 4.69722 16.41 3.15292ZM15.8801 2.62075C14.2417 1.09695 12.1111 0.211412 9.8753 0.125V9.1247H12.8852C12.9816 6.64537 14.0589 4.30585 15.8801 2.62075ZM2.58997 3.15367C1.08476 4.78779 0.210869 6.90465 0.125 9.1247H5.36419C5.26737 6.84512 4.26955 4.69722 2.58997 3.15292V3.15367ZM3.1199 2.62075C4.75828 1.09695 6.88891 0.211412 9.1247 0.125V9.1247H6.11479C6.01839 6.64537 4.9411 4.30585 3.1199 2.62075Z" fill="white"/>
</svg>
