<svg width="19" height="15" viewBox="0 0 19 15" fill="none" xmlns="http://www.w3.org/2000/svg">
<g clip-path="url(#clip0)">
<path d="M2.6 7.50002C2.6 6.00002 1.5 4.90002 0 4.90002V10.2C1.5 10.1 2.6 9.00002 2.6 7.50002Z" fill="white"/>
<path d="M17.9 0H1C0.4 0 0 0.4 0 1V3.4C2.3 3.4 4.1 5.3 4.1 7.5C4.1 9.8 2.2 11.6 0 11.6V14C0 14.6 0.4 15 1 15H17.9C18.5 15 18.9 14.6 18.9 14V1C18.9 0.4 18.5 0 17.9 0ZM18.9 4H13.4C11.3 4 9.6 5.6 9.6 7.5C9.6 9.5 11.3 11 13.4 11H18.9V12.5H13.4C10.5 12.5 8.1 10.2 8.1 7.5C8.1 4.7 10.5 2.5 13.4 2.5H18.9V4Z" fill="white"/>
</g>
<defs>
<clipPath id="clip0">
<rect width="18.9" height="15" fill="white"/>
</clipPath>
</defs>
</svg>
