<svg width="17" height="17" viewBox="0 0 17 17" fill="none" xmlns="http://www.w3.org/2000/svg">
<path d="M7.08366 0.354248H0.708659C0.513159 0.354248 0.354492 0.512561 0.354492 0.708415V7.08342C0.354492 7.27927 0.513159 7.43758 0.708659 7.43758H7.08366C7.27916 7.43758 7.43783 7.27927 7.43783 7.08342V0.708415C7.43783 0.512561 7.27916 0.354248 7.08366 0.354248Z" fill="white"/>
<path d="M16.2917 0.354248H9.91667C9.72117 0.354248 9.5625 0.512561 9.5625 0.708415V7.08342C9.5625 7.27927 9.72117 7.43758 9.91667 7.43758H16.2917C16.4872 7.43758 16.6458 7.27927 16.6458 7.08342V0.708415C16.6458 0.512561 16.4872 0.354248 16.2917 0.354248Z" fill="white"/>
<path d="M7.08366 9.5625H0.708659C0.513159 9.5625 0.354492 9.72081 0.354492 9.91667V16.2917C0.354492 16.4875 0.513159 16.6458 0.708659 16.6458H7.08366C7.27916 16.6458 7.43783 16.4875 7.43783 16.2917V9.91667C7.43783 9.72081 7.27916 9.5625 7.08366 9.5625Z" fill="white"/>
<path d="M16.2917 9.5625H9.91667C9.72117 9.5625 9.5625 9.72081 9.5625 9.91667V16.2917C9.5625 16.4875 9.72117 16.6458 9.91667 16.6458H16.2917C16.4872 16.6458 16.6458 16.4875 16.6458 16.2917V9.91667C16.6458 9.72081 16.4872 9.5625 16.2917 9.5625Z" fill="white"/>
</svg>
