<svg width="18" height="18" viewBox="0 0 18 18" fill="none" xmlns="http://www.w3.org/2000/svg">
<path d="M8.99971 0C4.03661 0 0 4.03718 0 8.99971C0 13.9628 4.03661 18.0006 8.99971 18.0006C13.9617 18.0006 17.9989 13.9634 17.9989 8.99971C17.9989 4.03718 13.9617 0 8.99971 0ZM8.99971 16.5672C4.82648 16.5672 1.43222 13.1729 1.43222 8.99914C1.43222 4.82706 4.82648 1.43164 8.99971 1.43164C13.1724 1.43164 16.5666 4.82706 16.5666 8.99914C16.5666 13.1729 13.1724 16.5672 8.99971 16.5672Z" fill="white"/>
<path d="M11.0451 7.09962V4.20763C11.0451 3.70937 10.6416 3.3064 10.1439 3.3064H8.19446C7.69677 3.3064 7.29379 3.70994 7.29379 4.20763V7.09962H4.40066C3.90297 7.09962 3.5 7.50316 3.5 8.00085V9.9916C3.5 10.4893 3.90297 10.8928 4.40066 10.8928H7.29322V13.7842C7.29322 14.2819 7.69619 14.6855 8.19388 14.6855H10.1439C10.641 14.6855 11.0445 14.2819 11.0445 13.7842V10.8928H13.9365C14.4342 10.8928 14.8378 10.4893 14.8378 9.9916V8.00085C14.8378 7.50259 14.4342 7.09962 13.9365 7.09962H11.0451Z" fill="white"/>
</svg>
