<svg width="25" height="25" viewBox="0 0 25 25" fill="none" xmlns="http://www.w3.org/2000/svg">
<path fill-rule="evenodd" clip-rule="evenodd" d="M12.1247 21.875V12.8753H9.11479C9.01839 15.3546 7.9411 17.6941 6.1199 19.3793C7.75828 20.903 9.88891 21.7886 12.1247 21.875ZM5.07656 18.2391C3.88213 16.6987 3.19972 14.8231 3.125 12.8753H8.36419C8.26737 15.1549 7.26955 17.3028 5.58997 18.8471C5.60048 18.8583 5.24845 18.4613 5.07731 18.2391H5.07656ZM19.41 18.8471C20.9154 17.2128 21.7893 15.0956 21.875 12.8753H16.6358C16.7326 15.1549 17.7304 17.3028 19.41 18.8471ZM18.8801 19.38C17.2416 20.9035 15.111 21.7888 12.8753 21.875V12.8753H15.8852C15.9816 15.3546 17.0589 17.6941 18.8801 19.3793V19.38ZM19.41 6.15292C20.9154 7.78723 21.7893 9.90439 21.875 12.1247H16.6358C16.7326 9.84512 17.7304 7.69722 19.41 6.15292ZM18.8801 5.62075C17.2417 4.09695 15.1111 3.21141 12.8753 3.125V12.1247H15.8852C15.9816 9.64537 17.0589 7.30585 18.8801 5.62075ZM5.58997 6.15367C4.08476 7.78779 3.21087 9.90465 3.125 12.1247H8.36419C8.26737 9.84512 7.26955 7.69722 5.58997 6.15292V6.15367ZM6.1199 5.62075C7.75828 4.09695 9.88891 3.21141 12.1247 3.125V12.1247H9.11479C9.01839 9.64537 7.9411 7.30585 6.1199 5.62075Z" fill="white"/>
</svg>
