<svg width="28" height="28" viewBox="0 0 28 28" fill="none" xmlns="http://www.w3.org/2000/svg">
<path d="M9.90286 18.3103C9.28489 18.5236 10.5154 18.0971 9.90286 18.3103V18.3103Z" fill="white"/>
<path d="M9.90312 18.3102C10.6414 18.0532 11.4398 18.0368 12.1781 17.7798C12.4023 17.7032 12.8453 17.6102 12.9383 17.3532C13.0258 17.1016 13.0258 16.8063 13.0422 16.5438C13.0531 16.336 13.0586 16.1282 13.0586 15.9204C13.0586 15.7837 12.7086 15.4938 12.632 15.3681C12.3367 14.8759 12.3094 14.2141 12.2547 13.6563C11.7789 13.7876 11.7188 12.9071 11.6367 12.6391C11.5766 12.4532 11.2102 11.1735 11.7789 11.3485C11.6422 11.1079 11.5875 10.8126 11.5492 10.5446C11.4398 9.84462 11.3961 9.07899 11.6094 8.3954C12.0523 6.97352 13.4141 6.17508 14.8523 6.13133C16.3125 6.08211 17.7781 6.78211 18.325 8.19852C18.5875 8.88758 18.5656 9.6368 18.4781 10.3587C18.4398 10.6868 18.3852 11.0532 18.2211 11.3485C18.7516 11.1899 18.4672 12.3165 18.407 12.5134C18.3195 12.7923 18.243 13.7931 17.7453 13.6563C17.7016 14.0993 17.6523 14.5532 17.532 14.9852C17.45 15.2751 17.2805 15.5212 17.0836 15.7454C16.9852 15.8548 16.9359 15.8657 16.9414 16.0079C16.9469 16.4345 16.9359 16.8938 17.0453 17.3095C17.1547 17.7251 18.068 17.9001 18.4344 17.9767C19.4188 18.179 20.3266 18.272 21.1469 18.8845C22.1039 19.5899 22.6016 20.6892 22.6016 21.8759H7.39844C7.39844 20.2626 8.37187 18.8407 9.90312 18.3102Z" fill="white"/>
<path d="M21.1631 17.6375L21.0756 17.5938C21.092 17.5992 21.1084 17.6102 21.1193 17.6156C21.1357 17.6211 21.1467 17.6266 21.1631 17.6375Z" fill="white"/>
<path d="M21.1633 17.6376C21.3492 17.7306 21.5734 17.8454 21.1195 17.6157L21.0758 17.5938C20.7039 17.4188 20.3047 17.3751 19.9055 17.3368C19.7523 17.3204 19.6813 17.2165 19.7961 17.0688C20.0148 16.7899 20.7695 16.7353 21.0867 16.6095C21.2836 16.5329 21.3383 16.4618 21.3547 16.2431C21.3602 16.1446 21.4148 15.7071 21.3383 15.636C21.2836 15.5813 20.9391 15.6032 20.8625 15.5923C20.5508 15.554 20.2336 15.4884 19.9383 15.3735C19.8125 15.3243 19.6922 15.2642 19.5828 15.1876C19.4516 15.0892 19.6813 14.8485 19.7414 14.7173C19.9273 14.3071 20.0094 13.8587 20.0367 13.4103C20.0914 12.5298 19.9547 11.6438 20.1188 10.7688C20.3648 9.429 21.3984 8.75635 22.7164 8.75635C23.5313 8.75635 24.3352 9.03525 24.7891 9.74619C25.2922 10.5282 25.2648 11.5017 25.2375 12.3931C25.2211 12.9017 25.1992 13.4157 25.2703 13.9243C25.3031 14.1431 25.3523 14.3563 25.4289 14.5642C25.4891 14.7228 25.7953 15.1165 25.675 15.1985C25.2211 15.5212 24.4555 15.6306 23.9086 15.5868C23.8922 15.8548 23.843 16.1993 23.9414 16.4509C24.0945 16.8446 25.2375 16.9485 25.582 17.0634C26.5391 17.3806 27.25 18.1571 27.25 19.2509H22.9023C22.8313 19.2509 22.5578 18.7423 22.4813 18.6603C22.1094 18.2501 21.6555 17.8946 21.1633 17.6376Z" fill="white"/>
<path d="M4.42908 17.058C4.87205 16.9158 5.72518 16.872 6.04236 16.4892C6.20096 16.2978 6.11346 15.8111 6.09705 15.5814C5.85643 15.6033 5.59392 15.565 5.34783 15.5322C5.12361 15.4994 4.90486 15.4556 4.69158 15.379C4.59314 15.3408 4.49471 15.3025 4.40174 15.2478C4.18846 15.122 4.28689 15.1001 4.39627 14.9142C4.99236 13.9134 4.72439 12.6447 4.75174 11.5455C4.77361 10.6322 5.01424 9.63139 5.84549 9.11733C6.59471 8.65249 7.70486 8.63608 8.50877 8.9642C10.8275 9.89389 9.46033 12.9673 10.2533 14.7283C10.39 15.0236 10.5869 15.1275 10.2424 15.3025C10.051 15.4009 9.84314 15.4665 9.63533 15.5158C9.31814 15.5923 8.99002 15.6361 8.66189 15.647C8.60721 15.647 8.64549 16.3361 8.66189 16.4072C8.72205 16.6751 9.3072 16.7517 9.52595 16.8119C9.75017 16.872 10.122 16.8884 10.2314 17.1236C10.3955 17.4736 9.69002 17.3861 9.51502 17.4189C8.95174 17.5228 8.45408 17.8345 8.01658 18.19C7.68845 18.458 7.24549 18.8189 7.12517 19.2564H2.73924C2.75018 18.1572 3.46658 17.3751 4.42908 17.058Z" fill="white"/>
</svg>
