<svg width="21" height="21" viewBox="0 0 21 21" fill="none" xmlns="http://www.w3.org/2000/svg">
<g clip-path="url(#clip0)">
<path d="M7.01367 4.62599V2.95891C7.01367 2.68656 7.23405 2.46578 7.50586 2.46578H13.5762C13.848 2.46578 14.0684 2.68656 14.0684 2.95891V4.65798C14.9483 5.0037 15.7764 5.4787 16.5293 6.07347V2.46574C16.5293 1.10394 15.4275 0 14.0684 0H7.01367C5.65454 0 4.55273 1.10394 4.55273 2.46574V6.00949C5.30718 5.42641 6.13512 4.96195 7.01367 4.62599Z" fill="white"/>
<path d="M10.5 5.21924C5.78447 5.21924 1.96875 9.04194 1.96875 13.7672C1.96875 16.6429 3.39868 19.3084 5.79378 20.8976C5.89452 20.9644 6.01264 21.0001 6.13348 21.0001H14.8665C14.9873 21.0001 15.1055 20.9644 15.2062 20.8976C17.6013 19.3084 19.0312 16.6429 19.0312 13.7672C19.0312 9.04243 15.216 5.21924 10.5 5.21924Z" fill="white"/>
</g>
<defs>
<clipPath id="clip0">
<rect width="21" height="21" fill="white"/>
</clipPath>
</defs>
</svg>
