<svg width="17" height="17" viewBox="0 0 17 17" fill="none" xmlns="http://www.w3.org/2000/svg">
<g clip-path="url(#clip0)">
<path d="M16.6458 2.125H2.47917C2.38524 2.125 2.29515 2.16231 2.22873 2.22873C2.16231 2.29515 2.125 2.38524 2.125 2.47917V13.1042C2.125 13.1981 2.08769 13.2882 2.02127 13.3546C1.95485 13.421 1.86476 13.4583 1.77083 13.4583C1.6769 13.4583 1.58682 13.421 1.5204 13.3546C1.45398 13.2882 1.41667 13.1981 1.41667 13.1042V4.60417C1.41667 4.51024 1.37935 4.42015 1.31293 4.35373C1.24651 4.28731 1.15643 4.25 1.0625 4.25H0.354167C0.260236 4.25 0.170152 4.28731 0.103733 4.35373C0.0373139 4.42015 0 4.51024 0 4.60417L0 13.1042C0 14.1667 0.354167 14.875 1.41667 14.875H15.5833C15.9591 14.875 16.3194 14.7257 16.5851 14.4601C16.8507 14.1944 17 13.8341 17 13.4583V2.47917C17 2.38524 16.9627 2.29515 16.8963 2.22873C16.8298 2.16231 16.7398 2.125 16.6458 2.125ZM6.375 4.60417C6.375 4.51024 6.41231 4.42015 6.47873 4.35373C6.54515 4.28731 6.63524 4.25 6.72917 4.25H8.14583C8.23976 4.25 8.32985 4.28731 8.39627 4.35373C8.46269 4.42015 8.5 4.51024 8.5 4.60417C8.5 4.6981 8.46269 4.78818 8.39627 4.8546C8.32985 4.92102 8.23976 4.95833 8.14583 4.95833H7.08333V5.66667H7.79167C7.8856 5.66667 7.97568 5.70398 8.0421 5.7704C8.10852 5.83682 8.14583 5.9269 8.14583 6.02083C8.14583 6.11476 8.10852 6.20485 8.0421 6.27127C7.97568 6.33769 7.8856 6.375 7.79167 6.375H7.08333V7.08333H8.14583C8.23976 7.08333 8.32985 7.12065 8.39627 7.18707C8.46269 7.25349 8.5 7.34357 8.5 7.4375C8.5 7.53143 8.46269 7.62151 8.39627 7.68793C8.32985 7.75435 8.23976 7.79167 8.14583 7.79167H6.72917C6.63524 7.79167 6.54515 7.75435 6.47873 7.68793C6.41231 7.62151 6.375 7.53143 6.375 7.4375V4.60417ZM3.54167 4.60417C3.54167 4.51024 3.57898 4.42015 3.6454 4.35373C3.71182 4.28731 3.8019 4.25 3.89583 4.25H4.60417C4.88596 4.25 5.15621 4.36194 5.35547 4.5612C5.55473 4.76046 5.66667 5.03071 5.66667 5.3125V7.4375C5.66667 7.53143 5.62935 7.62151 5.56293 7.68793C5.49651 7.75435 5.40643 7.79167 5.3125 7.79167C5.21857 7.79167 5.12849 7.75435 5.06207 7.68793C4.99565 7.62151 4.95833 7.53143 4.95833 7.4375V5.3125C4.95833 5.21857 4.92102 5.12849 4.8546 5.06207C4.78818 4.99565 4.6981 4.95833 4.60417 4.95833H4.25V7.4375C4.25 7.53143 4.21269 7.62151 4.14627 7.68793C4.07985 7.75435 3.98976 7.79167 3.89583 7.79167C3.8019 7.79167 3.71182 7.75435 3.6454 7.68793C3.57898 7.62151 3.54167 7.53143 3.54167 7.4375V4.60417ZM9.20833 12.3958C9.20833 12.4898 9.17102 12.5798 9.1046 12.6463C9.03818 12.7127 8.9481 12.75 8.85417 12.75H3.89583C3.8019 12.75 3.71182 12.7127 3.6454 12.6463C3.57898 12.5798 3.54167 12.4898 3.54167 12.3958V8.85417C3.54167 8.76024 3.57898 8.67015 3.6454 8.60373C3.71182 8.53731 3.8019 8.5 3.89583 8.5H8.85417C8.9481 8.5 9.03818 8.53731 9.1046 8.60373C9.17102 8.67015 9.20833 8.76024 9.20833 8.85417V12.3958ZM9.20833 6.375V4.60417C9.20833 4.51024 9.24565 4.42015 9.31207 4.35373C9.37848 4.28731 9.46857 4.25 9.5625 4.25C9.65643 4.25 9.74651 4.28731 9.81293 4.35373C9.87935 4.42015 9.91667 4.51024 9.91667 4.60417V6.26875L10.2708 6.8L10.625 6.26875V4.60417C10.625 4.51024 10.6623 4.42015 10.7287 4.35373C10.7952 4.28731 10.8852 4.25 10.9792 4.25C11.0731 4.25 11.1632 4.28731 11.2296 4.35373C11.296 4.42015 11.3333 4.51024 11.3333 4.60417V6.26875L11.6875 6.8L12.0417 6.26875V4.60417C12.0417 4.51024 12.079 4.42015 12.1454 4.35373C12.2118 4.28731 12.3019 4.25 12.3958 4.25C12.4898 4.25 12.5798 4.28731 12.6463 4.35373C12.7127 4.42015 12.75 4.51024 12.75 4.60417V6.375C12.7512 6.44527 12.7315 6.51431 12.6933 6.57333L11.985 7.63583C11.9526 7.68404 11.9088 7.72355 11.8576 7.75086C11.8063 7.77817 11.7491 7.79246 11.691 7.79246C11.633 7.79246 11.5758 7.77817 11.5245 7.75086C11.4732 7.72355 11.4295 7.68404 11.3971 7.63583L10.9792 7.0125L10.5683 7.63583C10.5359 7.68404 10.4922 7.72355 10.4409 7.75086C10.3897 7.77817 10.3325 7.79246 10.2744 7.79246C10.2163 7.79246 10.1591 7.77817 10.1078 7.75086C10.0566 7.72355 10.0128 7.68404 9.98042 7.63583L9.27208 6.57333C9.23143 6.51511 9.20922 6.44601 9.20833 6.375ZM15.2292 12.75H10.2708C10.1769 12.75 10.0868 12.7127 10.0204 12.6463C9.95398 12.5798 9.91667 12.4898 9.91667 12.3958C9.91667 12.3019 9.95398 12.2118 10.0204 12.1454C10.0868 12.079 10.1769 12.0417 10.2708 12.0417H15.2292C15.3231 12.0417 15.4132 12.079 15.4796 12.1454C15.546 12.2118 15.5833 12.3019 15.5833 12.3958C15.5833 12.4898 15.546 12.5798 15.4796 12.6463C15.4132 12.7127 15.3231 12.75 15.2292 12.75ZM15.2292 11.3333H10.2708C10.1769 11.3333 10.0868 11.296 10.0204 11.2296C9.95398 11.1632 9.91667 11.0731 9.91667 10.9792C9.91667 10.8852 9.95398 10.7952 10.0204 10.7287C10.0868 10.6623 10.1769 10.625 10.2708 10.625H15.2292C15.3231 10.625 15.4132 10.6623 15.4796 10.7287C15.546 10.7952 15.5833 10.8852 15.5833 10.9792C15.5833 11.0731 15.546 11.1632 15.4796 11.2296C15.4132 11.296 15.3231 11.3333 15.2292 11.3333ZM15.2292 9.91667H10.2708C10.1769 9.91667 10.0868 9.87935 10.0204 9.81293C9.95398 9.74651 9.91667 9.65643 9.91667 9.5625C9.91667 9.46857 9.95398 9.37849 10.0204 9.31207C10.0868 9.24565 10.1769 9.20833 10.2708 9.20833H15.2292C15.3231 9.20833 15.4132 9.24565 15.4796 9.31207C15.546 9.37849 15.5833 9.46857 15.5833 9.5625C15.5833 9.65643 15.546 9.74651 15.4796 9.81293C15.4132 9.87935 15.3231 9.91667 15.2292 9.91667ZM14.5208 5.66667C14.8026 5.66667 15.0729 5.77861 15.2721 5.97787C15.4714 6.17712 15.5833 6.44737 15.5833 6.72917C15.5833 7.01096 15.4714 7.28121 15.2721 7.48047C15.0729 7.67973 14.8026 7.79167 14.5208 7.79167H13.8125C13.7186 7.79167 13.6285 7.75435 13.5621 7.68793C13.4956 7.62151 13.4583 7.53143 13.4583 7.4375C13.4583 7.34357 13.4956 7.25349 13.5621 7.18707C13.6285 7.12065 13.7186 7.08333 13.8125 7.08333H14.5208C14.6148 7.08333 14.7048 7.04602 14.7713 6.9796C14.8377 6.91318 14.875 6.8231 14.875 6.72917C14.875 6.63524 14.8377 6.54515 14.7713 6.47873C14.7048 6.41231 14.6148 6.375 14.5208 6.375C14.239 6.375 13.9688 6.26306 13.7695 6.0638C13.5703 5.86454 13.4583 5.59429 13.4583 5.3125C13.4583 5.03071 13.5703 4.76046 13.7695 4.5612C13.9688 4.36194 14.239 4.25 14.5208 4.25H15.2292C15.3231 4.25 15.4132 4.28731 15.4796 4.35373C15.546 4.42015 15.5833 4.51024 15.5833 4.60417C15.5833 4.6981 15.546 4.78818 15.4796 4.8546C15.4132 4.92102 15.3231 4.95833 15.2292 4.95833H14.5208C14.4269 4.95833 14.3368 4.99565 14.2704 5.06207C14.204 5.12849 14.1667 5.21857 14.1667 5.3125C14.1667 5.40643 14.204 5.49651 14.2704 5.56293C14.3368 5.62935 14.4269 5.66667 14.5208 5.66667Z" fill="white"/>
</g>
<defs>
<clipPath id="clip0">
<rect width="17" height="17" fill="white"/>
</clipPath>
</defs>
</svg>
