<svg width="18" height="18" viewBox="0 0 18 18" fill="none" xmlns="http://www.w3.org/2000/svg">
<g clip-path="url(#clip0)">
<path d="M17.9996 7.31256C17.9996 7.08878 17.9107 6.87417 17.7525 6.71593C17.5943 6.5577 17.3797 6.46881 17.1559 6.46881H11.5441L9.80654 1.15881C9.75333 0.986391 9.64629 0.835558 9.5011 0.72842C9.35591 0.621283 9.18022 0.563477 8.99978 0.563477C8.81934 0.563477 8.64365 0.621283 8.49846 0.72842C8.35327 0.835558 8.24622 0.986391 8.19301 1.15881L6.45517 6.46881H0.843387C0.665115 6.46888 0.491448 6.52542 0.347301 6.63031C0.203153 6.73521 0.0959329 6.88306 0.0410222 7.05267C-0.0138885 7.22227 -0.013668 7.40491 0.0416523 7.57438C0.0969725 7.74385 0.204549 7.89145 0.34895 7.99599L4.88214 11.2754L3.13586 16.611C3.08015 16.7803 3.0795 16.9629 3.13401 17.1327C3.18853 17.3024 3.2954 17.4505 3.43929 17.5557C3.58319 17.6609 3.75672 17.7179 3.93498 17.7184C4.11325 17.7189 4.28709 17.6629 4.43157 17.5585H4.43186L8.99964 14.2544L13.5677 17.5585H13.568C13.7124 17.6629 13.8862 17.7188 14.0645 17.7183C14.2427 17.7178 14.4162 17.6609 14.56 17.5557C14.7039 17.4505 14.8108 17.3025 14.8653 17.1328C14.9199 16.9631 14.9193 16.7806 14.8637 16.6112L13.1174 11.2754L17.6506 7.99599C17.7587 7.91783 17.8467 7.81511 17.9074 7.6963C17.9681 7.57749 17.9997 7.44597 17.9996 7.31256Z" fill="white"/>
</g>
<defs>
<clipPath id="clip0">
<rect width="18" height="18" fill="white"/>
</clipPath>
</defs>
</svg>
