<svg width="127" height="179" viewBox="0 0 127 179" fill="none" xmlns="http://www.w3.org/2000/svg">
<path d="M64.9675 179C43.204 179.021 21.9813 172.183 4.2836 159.448C3.7699 159.64 3.21561 159.695 2.67455 159.608C2.13349 159.521 1.62406 159.294 1.19573 158.951C0.767401 158.607 0.434733 158.158 0.230035 157.647C0.0253362 157.136 -0.0444351 156.58 0.0274986 156.034C0.0994323 155.488 0.310624 154.97 0.640565 154.53C0.970506 154.09 1.40798 153.743 1.9105 153.524C2.41302 153.304 2.9635 153.219 3.50849 153.276C4.05347 153.333 4.57443 153.532 5.02078 153.851C31.3686 144.043 35.6201 136.082 35.6201 120.824C35.6201 116.792 34.7177 115.47 33.0908 113.067C30.9365 109.911 27.9877 105.585 25.916 94.2889C25.611 92.666 25.3504 92.5382 23.9078 91.8354C20.0567 89.9697 16.517 87.2861 15.5891 75.044C15.5891 69.1146 17.6227 65.8368 19.3068 64.1308C18.9382 62.0223 18.3345 58.3867 17.7689 54.4253C14.8901 36.6818 14.763 14.9514 39.5856 4.84971C61.218 -3.9677 78.4846 0.849928 83.9054 6.59402C87.7438 6.71542 97.6449 7.72495 104.534 15.782C115.134 28.1775 111.759 56.438 110.603 64.0989C112.293 65.7665 114.346 68.9996 114.346 74.8012C113.418 87.2861 109.878 89.9761 106.021 91.8354C104.572 92.5382 104.311 92.6596 104.013 94.2889C101.941 105.585 98.9985 109.911 96.8442 113.067C95.2109 115.463 94.3149 116.792 94.3149 120.824C94.3149 136.082 98.5664 144.043 124.914 153.851C125.459 154.05 125.939 154.395 126.301 154.848C126.664 155.302 126.897 155.847 126.973 156.425C127.049 157.002 126.966 157.589 126.733 158.122C126.5 158.655 126.126 159.114 125.651 159.448C107.954 172.183 86.7309 179.021 64.9675 179ZM12.9645 157.602C28.6105 167.441 46.4681 172.611 64.9675 172.611C83.4669 172.611 101.324 167.441 116.97 157.602C94.8932 148.49 87.9599 139.302 87.9599 120.831C87.9599 114.818 89.7266 112.218 91.6013 109.464C93.5332 106.627 95.9354 103.1 97.772 93.1324C98.6553 88.3148 101.432 86.973 103.269 86.0849C105.245 85.1329 107.279 84.1489 107.997 74.5648C107.991 69.6832 105.811 68.3542 105.722 68.3031C105.133 67.9657 104.658 67.4583 104.359 66.8466C104.06 66.2349 103.95 65.547 104.044 64.872C105.62 56.3804 108.213 29.8963 99.7166 19.9479C93.9145 13.1624 84.7697 12.9771 83.0284 13.0473C82.7361 13.0218 82.4501 13.0154 82.1768 12.9451C81.3507 12.7343 79.9526 12.0123 79.5268 11.2711C77.7982 8.29361 62.7432 2.30672 41.9687 10.7599C21.4357 19.1173 21.3913 37.0333 24.054 53.4541C24.931 59.5688 25.8906 64.8528 25.897 64.8784C26.0236 65.5763 25.9155 66.2967 25.5899 66.926C25.2643 67.5554 24.7396 68.0579 24.0985 68.3542C24.1176 68.3542 21.9441 69.6896 21.9441 74.7948C22.6559 84.1297 24.6959 85.1201 26.6659 86.0721C28.5025 86.9602 31.286 88.302 32.1693 93.1197C33.9996 103.087 36.4018 106.614 38.3337 109.451C40.2148 112.205 41.9815 114.805 41.9815 120.818C41.9815 139.309 35.0481 148.497 12.9645 157.602Z" fill="black"/>
</svg>
