<svg width="25" height="25" viewBox="0 0 25 25" fill="none" xmlns="http://www.w3.org/2000/svg">
<path d="M20.6447 4.58948L16.9893 0.934035C16.7145 0.659358 16.2693 0.659358 15.9947 0.934035L5.93105 10.9976C2.92272 14.0059 2.92272 18.901 5.93105 21.9094C7.43534 23.4135 9.41105 24.1656 11.3869 24.1656C13.3628 24.1656 15.3388 23.4135 16.8429 21.9094C19.72 19.032 19.8454 14.4287 17.219 11.4011L20.7524 5.44574C20.9165 5.16932 20.8719 4.81688 20.6447 4.58948ZM14.4677 19.534C13.6184 20.3832 12.5026 20.808 11.3869 20.808C10.2714 20.808 9.15575 20.3832 8.30638 19.534C6.60782 17.8354 6.60782 15.0715 8.30638 13.3726C10.0049 11.674 12.7691 11.674 14.4677 13.3726C16.1663 15.0715 16.1663 17.8354 14.4677 19.534Z" fill="white"/>
<path d="M11.3872 13.5046C10.6319 13.5046 9.87642 13.7922 9.30127 14.3674C8.15088 15.5177 8.15088 17.3893 9.30127 18.5395C10.4515 19.69 12.3231 19.69 13.4735 18.5395C14.6237 17.3893 14.6237 15.5177 13.4735 14.3674C12.8982 13.7922 12.143 13.5046 11.3872 13.5046Z" fill="white"/>
</svg>
