<svg width="51" height="39" viewBox="0 0 51 39" fill="none" xmlns="http://www.w3.org/2000/svg">
<path d="M25.5 51C11.4395 51 0 39.5605 0 25.5C0 11.4395 11.4395 0 25.5 0C39.5605 0 51 11.4395 51 25.5C51 39.5605 39.5605 51 25.5 51ZM25.5 1.54545C12.291 1.54545 1.54545 12.291 1.54545 25.5C1.54545 38.709 12.291 49.4545 25.5 49.4545C38.709 49.4545 49.4545 38.709 49.4545 25.5C49.4545 12.291 38.709 1.54545 25.5 1.54545Z" fill="white"/>
<path d="M25.5004 51C20.2078 51.0051 15.0468 49.3513 10.7429 46.271C10.618 46.3173 10.4832 46.3306 10.3516 46.3095C10.22 46.2884 10.0961 46.2337 9.99196 46.1506C9.88779 46.0675 9.80689 45.9588 9.75711 45.8352C9.70733 45.7116 9.69037 45.5772 9.70786 45.4451C9.72535 45.313 9.77671 45.1877 9.85695 45.0813C9.93719 44.9749 10.0436 44.891 10.1658 44.8379C10.288 44.7848 10.4219 44.7641 10.5544 44.778C10.6869 44.7919 10.8136 44.8398 10.9222 44.9171C17.3296 42.5449 18.3635 40.6192 18.3635 36.9287C18.3635 35.9535 18.1441 35.6336 17.7484 35.0525C17.2245 34.289 16.5074 33.2428 16.0036 30.5104C15.9294 30.1179 15.8661 30.087 15.5152 29.917C14.5787 29.4657 13.7179 28.8166 13.4922 25.8555C13.4922 24.4213 13.9868 23.6285 14.3963 23.2159C14.3067 22.7059 14.1599 21.8265 14.0223 20.8683C13.3223 16.5766 13.2913 11.3205 19.3279 8.87713C24.5886 6.74441 28.7876 7.90968 30.1059 9.29904C31.0393 9.32841 33.4472 9.57259 35.1224 11.5214C37.7002 14.5196 36.8796 21.3551 36.5983 23.2081C37.0094 23.6115 37.5086 24.3935 37.5086 25.7968C37.283 28.8166 36.4222 29.4672 35.4841 29.917C35.1317 30.087 35.0683 30.1163 34.9957 30.5104C34.4919 33.2428 33.7763 34.289 33.2524 35.0525C32.8552 35.632 32.6373 35.9535 32.6373 36.9287C32.6373 40.6192 33.6712 42.5449 40.0787 44.9171C40.2111 44.9652 40.3278 45.0486 40.4161 45.1584C40.5043 45.2681 40.5608 45.4 40.5793 45.5396C40.5978 45.6793 40.5776 45.8213 40.5209 45.9502C40.4643 46.0792 40.3733 46.1901 40.258 46.271C35.9541 49.3513 30.793 51.0051 25.5004 51ZM12.854 45.8243C16.6589 48.2043 21.0016 49.4546 25.5004 49.4546C29.9992 49.4546 34.342 48.2043 38.1469 45.8243C32.778 43.6205 31.0919 41.3981 31.0919 36.9302C31.0919 35.476 31.5215 34.847 31.9774 34.1809C32.4472 33.4947 33.0314 32.6416 33.4781 30.2307C33.6929 29.0654 34.3682 28.7409 34.8149 28.526C35.2955 28.2958 35.7901 28.0578 35.9647 25.7396C35.9632 24.5589 35.4331 24.2374 35.4114 24.225C35.2682 24.1434 35.1527 24.0207 35.08 23.8727C35.0072 23.7248 34.9806 23.5584 35.0034 23.3951C35.3867 21.3412 36.0172 14.9353 33.951 12.529C32.54 10.8878 30.3161 10.843 29.8926 10.86C29.8215 10.8538 29.752 10.8522 29.6855 10.8352C29.4846 10.7842 29.1446 10.6096 29.0411 10.4303C28.6207 9.71013 24.9595 8.26204 19.9074 10.3067C14.9141 12.3281 14.9033 16.6616 15.5508 20.6334C15.7641 22.1124 15.9974 23.3905 15.999 23.3967C16.0298 23.5655 16.0035 23.7397 15.9243 23.892C15.8451 24.0442 15.7175 24.1657 15.5616 24.2374C15.5663 24.2374 15.0377 24.5604 15.0377 25.7952C15.2108 28.0531 15.7069 28.2927 16.186 28.523C16.6326 28.7378 17.3095 29.0623 17.5243 30.2276C17.9694 32.6385 18.5536 33.4916 19.0234 34.1778C19.4809 34.8439 19.9105 35.4729 19.9105 36.9271C19.9105 41.3997 18.2244 43.622 12.854 45.8243Z" fill="white"/>
</svg>
